<?xml version="1.0" encoding="utf-8"?>
<!-- Generator: Adobe Illustrator 27.5.0, SVG Export Plug-In . SVG Version: 6.00 Build 0)  -->
<svg version="1.1" xmlns="http://www.w3.org/2000/svg" xmlns:xlink="http://www.w3.org/1999/xlink" x="0px" y="0px"
	 viewBox="0 0 950 500" style="enable-background:new 0 0 950 500;" xml:space="preserve">
<g id="BACKGROUND">
	<g>
		<defs>
			<rect id="SVGID_1_" transform="matrix(-1 -1.224647e-16 1.224647e-16 -1 950 500)" width="950" height="500"/>
		</defs>
		<clipPath id="SVGID_00000018946739833068973900000000196473236184557462_">
			<use xlink:href="#SVGID_1_"  style="overflow:visible;"/>
		</clipPath>
		<g style="clip-path:url(#SVGID_00000018946739833068973900000000196473236184557462_);">
			<g style="opacity:0.16;">
				<g>
					<g>
						<g>
							<path style="fill:#FFFFFF;" d="M-35.509,70.006c-1.463,46.129,14.706,85.749,39.111,108.075
								c4.565,4.177,7.545,11.076,8.148,18.726c0.033,0.414,0.067,0.829,0.104,1.243c4.475,50.649,37.989,86.229,73.687,79.369
								c34.146-6.563,58.727-32.048,55.096-81.127c-0.017-0.231-0.036-0.567-0.056-0.992c-0.634-13.375,6.798-24.62,16.257-24.936
								c1.984-0.066,3.981-0.246,5.989-0.542c40.737-6.012,70.288-57.721,65.95-115.45c-1.984-26.403-10.807-49.528-23.694-66.228
								H-7.267C-23.408,9.962-34.565,40.23-35.509,70.006z"/>
						</g>
					</g>
				</g>
			</g>
			<g style="opacity:0.16;">
				<g>
					<g>
						<g>
							<path style="fill:#FFFFFF;" d="M9.661,42.058c-0.964,30.38,9.686,56.474,25.758,71.178c3.007,2.751,4.969,7.295,5.366,12.333
								c0.021,0.273,0.044,0.546,0.068,0.819c2.947,33.357,25.02,56.791,48.53,52.272c22.488-4.322,38.677-21.107,36.286-53.43
								c-0.011-0.152-0.023-0.373-0.037-0.653c-0.418-8.809,4.477-16.214,10.706-16.423c1.307-0.044,2.622-0.162,3.944-0.357
								c26.829-3.96,46.291-38.015,43.434-76.035c-1.307-17.389-7.117-32.619-15.604-43.617H28.262
								C17.631,2.513,10.283,22.448,9.661,42.058z"/>
						</g>
					</g>
				</g>
			</g>
			<path style="opacity:0.33;fill:none;stroke:#FFFFFF;stroke-miterlimit:10;" d="M451.23,232.916L451.23,232.916
				c4.473-23.093-9.078-47.051-32.468-57.404h0c-35.84-15.864-44.805-60.309-16.895-83.761v0
				c18.214-15.305,21.691-41.29,8.331-62.26v0c-20.472-32.132-0.312-71.352,37.993-73.913h0
				c24.999-1.671,44.176-19.757,45.948-43.335h0c2.715-36.127,44.3-55.141,78.37-35.833l0,0
				c22.235,12.601,49.786,9.321,66.014-7.857l0,0c24.866-26.323,71.991-17.868,88.811,15.934v0
				c10.977,22.06,36.38,34.84,60.865,30.622h0c37.518-6.464,72.184,26.23,65.33,61.615v0c-4.473,23.093,9.078,47.051,32.468,57.404
				l0,0c35.84,15.864,44.805,60.309,16.895,83.761v0c-18.215,15.305-21.692,41.29-8.331,62.26v0
				c20.472,32.132,0.312,71.352-37.993,73.913h0c-24.999,1.671-44.176,19.758-45.948,43.335v0
				c-2.716,36.127-44.3,55.141-78.37,35.833l0,0c-22.235-12.601-49.786-9.322-66.014,7.857l0,0
				c-24.866,26.323-71.991,17.868-88.811-15.934l0,0c-10.977-22.06-36.38-34.84-60.865-30.622h0
				C479.041,300.995,444.376,268.301,451.23,232.916z"/>
			<path style="opacity:0.33;fill:#FFFFFF;" d="M446.055,161.438L446.055,161.438c4.758-24.565-9.657-50.05-34.538-61.063l0,0
				c-38.125-16.875-47.661-64.153-17.972-89.1h0c19.376-16.281,23.074-43.922,8.862-66.229l0,0
				c-21.777-34.181-0.332-75.9,40.415-78.624h0c26.592-1.778,46.992-21.017,48.877-46.097v0
				c2.888-38.43,47.124-58.656,83.365-38.117l0,0c23.652,13.404,52.96,9.916,70.222-8.358l0,0
				c26.451-28.001,76.58-19.007,94.473,16.95v0c11.677,23.466,38.699,37.061,64.745,32.574l0,0
				c39.91-6.876,76.785,27.902,69.495,65.543v0c-4.758,24.565,9.657,50.05,34.538,61.063h0c38.125,16.875,47.661,64.153,17.972,89.1
				l0,0c-19.376,16.281-23.074,43.922-8.862,66.229l0,0c21.777,34.181,0.332,75.9-40.415,78.624l0,0
				c-26.593,1.778-46.992,21.017-48.877,46.097v0c-2.888,38.43-47.124,58.656-83.365,38.117h0
				c-23.652-13.404-52.96-9.916-70.222,8.358l0,0c-26.451,28.001-76.58,19.007-94.472-16.95v0
				c-11.677-23.466-38.699-37.061-64.745-32.574h0C475.639,233.857,438.764,199.079,446.055,161.438z"/>
			<path style="opacity:0.14;fill:#FFFFFF;" d="M43.976,784.396L43.976,784.396c4.548-23.483-9.232-47.847-33.017-58.375v0
				c-36.447-16.132-45.563-61.329-17.181-85.178h0c18.523-15.564,22.058-41.988,8.472-63.313l0,0
				c-20.819-32.676-0.318-72.559,38.636-75.163h0c25.422-1.7,44.923-20.092,46.725-44.068v0
				c2.761-36.738,45.049-56.073,79.695-36.439l0,0c22.611,12.814,50.628,9.479,67.131-7.99l0,0
				c25.287-26.768,73.209-18.17,90.314,16.204v0c11.163,22.433,36.996,35.429,61.895,31.14l0,0
				c38.153-6.573,73.405,26.674,66.435,62.657v0c-4.548,23.484,9.232,47.847,33.017,58.375l0,0
				c36.447,16.132,45.563,61.329,17.181,85.178l0,0c-18.523,15.564-22.059,41.988-8.472,63.313l0,0
				c20.819,32.676,0.318,72.559-38.636,75.163l0,0c-25.422,1.7-44.923,20.092-46.725,44.068l0,0
				c-2.761,36.739-45.049,56.074-79.695,36.439h0c-22.611-12.814-50.628-9.479-67.131,7.99l0,0
				c-25.287,26.768-73.209,18.17-90.314-16.204v0c-11.163-22.433-36.995-35.429-61.895-31.14h0
				C72.258,853.627,37.006,820.38,43.976,784.396z"/>
			<path style="opacity:0.33;fill:none;stroke:#FFFFFF;stroke-miterlimit:10;" d="M69.597,812.563L69.597,812.563
				c3.992-20.612-8.103-41.997-28.98-51.238v0c-31.99-14.16-39.992-53.831-15.08-74.763h0c16.258-13.661,19.362-36.855,7.436-55.572
				v0c-18.273-28.681-0.279-63.687,33.912-65.973l0,0c22.314-1.492,39.43-17.635,41.012-38.68v0
				c2.424-32.247,39.541-49.218,69.951-31.984h0c19.846,11.247,44.438,8.32,58.923-7.013v0
				c22.195-23.495,64.258-15.948,79.271,14.223v0c9.798,19.69,32.472,31.098,54.327,27.332l0,0
				c33.488-5.769,64.43,23.413,58.313,54.996v0c-3.992,20.612,8.103,41.997,28.98,51.238h0c31.99,14.16,39.992,53.831,15.08,74.763
				l0,0c-16.258,13.661-19.361,36.854-7.436,55.572l0,0c18.273,28.681,0.279,63.687-33.912,65.973h0
				c-22.314,1.492-39.43,17.635-41.012,38.68v0c-2.424,32.247-39.541,49.218-69.951,31.984h0
				c-19.846-11.247-44.438-8.32-58.923,7.013l0,0c-22.195,23.495-64.258,15.948-79.271-14.223v0
				c-9.798-19.69-32.472-31.098-54.327-27.332l0,0C94.422,873.329,63.48,844.147,69.597,812.563z"/>
			<g style="opacity:0.16;">
				<g>
					<g>
						<g>
							<path style="fill:#FFFFFF;" d="M903.775,429.401c1.605-40.096-16.135-74.534-42.912-93.94
								c-5.009-3.63-8.278-9.627-8.94-16.277c-0.036-0.36-0.074-0.72-0.114-1.081c-4.91-44.025-41.681-74.952-80.848-68.988
								c-37.464,5.704-64.434,27.856-60.45,70.517c0.019,0.201,0.039,0.493,0.061,0.862c0.696,11.625-7.458,21.4-17.837,21.675
								c-2.176,0.058-4.368,0.214-6.571,0.471c-44.696,5.226-77.119,50.172-72.359,100.35c2.177,22.95,11.857,43.051,25.996,57.566
								h232.985C890.498,481.592,902.739,455.282,903.775,429.401z"/>
						</g>
					</g>
				</g>
			</g>
			<g style="opacity:0.16;">
				<g>
					<g>
						<g>
							<path style="fill:#FFFFFF;" d="M926.9,514.966c0.817-25.772-8.216-47.908-21.851-60.382
								c-2.551-2.334-4.216-6.188-4.552-10.462c-0.018-0.231-0.037-0.463-0.058-0.695c-2.5-28.298-21.225-48.177-41.169-44.343
								c-19.077,3.667-32.811,17.905-30.782,45.326c0.009,0.129,0.02,0.317,0.031,0.554c0.354,7.473-3.798,13.755-9.083,13.932
								c-1.108,0.037-2.224,0.137-3.346,0.303c-22.76,3.359-39.27,32.249-36.846,64.502c1.109,14.751,6.038,27.671,13.237,37.001
								h118.639C920.139,548.513,926.372,531.602,926.9,514.966z"/>
						</g>
					</g>
				</g>
			</g>
		</g>
		
			<rect x="0" y="0.002" transform="matrix(-1 -1.224647e-16 1.224647e-16 -1 950.0008 500.0033)" style="clip-path:url(#SVGID_00000018946739833068973900000000196473236184557462_);fill:#F8EEE2;" width="950" height="500"/>
	</g>
	<g style="opacity:0.59;">
		<defs>
			
				<rect id="SVGID_00000018933258611901430100000009266452922228615822_" x="0" y="0" transform="matrix(-1 -1.224647e-16 1.224647e-16 -1 950.0008 500)" style="opacity:0.59;" width="950" height="500"/>
		</defs>
		<clipPath id="SVGID_00000026152066042499323780000010652918351151828126_">
			<use xlink:href="#SVGID_00000018933258611901430100000009266452922228615822_"  style="overflow:visible;"/>
		</clipPath>
		<path style="clip-path:url(#SVGID_00000026152066042499323780000010652918351151828126_);fill:#FFFFFF;" d="M495.077,720.059
			c-23.59,0-45.162-9.207-59.183-25.259c-14.499-16.599-18.287-37.277-10.393-56.729l0.428-1.042
			c7.815-18.763-4.068-34.999-16.648-52.188c-5.644-7.712-11.481-15.686-15.331-23.873c-10.264-21.824-14.555-49.494-11.774-75.915
			c3.773-35.844,22.401-69.836,51.105-93.26c42.27-34.495,109.549-49.104,179.973-39.085c6.452,0.918,12.994,2.029,19.32,3.104
			c19.123,3.249,38.901,6.61,58.778,5.067c29.551-2.289,56.861-15.061,83.272-27.412c8.07-3.774,16.414-7.676,24.684-11.213
			c53.255-22.773,108.163-30.838,154.608-22.71c61.271,10.725,106.102,50.787,111.556,99.691c1.161,10.415-3.37,24.032-8.168,38.448
			c-5.717,17.176-11.627,34.938-7.142,46.823c2.47,6.545,9.5,16.997,18.402,30.228c21.308,31.678,50.492,75.06,49.433,111.38
			c-1.432,49.108-14.565,66.306-32.742,90.11l-2.733,3.585l-1.097-0.567l2.734-3.586c18.067-23.659,31.121-40.753,32.544-89.567
			c1.05-36.03-28.034-79.266-49.271-110.837c-8.937-13.286-15.996-23.78-18.505-30.429c-4.597-12.184,1.365-30.098,7.131-47.422
			c4.765-14.32,9.268-27.846,8.127-38.068c-5.401-48.436-49.822-88.119-110.534-98.745c-46.156-8.081-100.754-0.048-153.744,22.613
			c-8.248,3.527-16.582,7.425-24.642,11.194c-26.53,12.407-53.962,25.236-83.789,27.547c-20.074,1.553-39.946-1.82-59.161-5.085
			c-6.317-1.073-12.848-2.183-19.279-3.098c-70.015-9.962-136.869,4.539-178.843,38.792c-28.489,23.249-46.978,56.998-50.726,92.594
			c-2.765,26.264,1.496,53.76,11.691,75.437c3.81,8.101,9.617,16.035,15.232,23.707c12.181,16.642,24.776,33.852,16.765,53.085
			l-0.426,1.034c-7.76,19.123-4.036,39.449,10.216,55.766c13.775,15.771,34.964,24.817,58.133,24.817V720.059z"/>
		<path style="clip-path:url(#SVGID_00000026152066042499323780000010652918351151828126_);fill:#FFFFFF;" d="M569.555,720.059
			c-16.751,0-32.068-6.685-42.024-18.342c-10.293-12.052-12.982-27.064-7.378-41.187l0.303-0.754
			c5.501-13.506-2.884-25.222-11.761-37.626c-3.998-5.585-8.13-11.36-10.861-17.296c-7.272-15.812-10.312-35.859-8.342-54.998
			c2.673-25.971,15.872-50.601,36.211-67.575c29.949-24.994,77.611-35.58,127.492-28.323c4.566,0.665,9.196,1.469,13.672,2.247
			c13.516,2.348,27.494,4.774,41.531,3.663c20.867-1.653,40.17-10.885,58.838-19.813c5.711-2.731,11.616-5.555,17.469-8.116
			c37.716-16.492,76.606-22.335,109.508-16.445c43.43,7.774,75.207,36.817,79.072,72.27c0.825,7.564-2.386,17.43-5.785,27.874
			c-4.036,12.406-8.211,25.233-5.055,33.788c1.742,4.72,6.712,12.276,13.003,21.841c15.086,22.936,35.747,54.346,34.996,80.667
			c-1.015,35.575-10.317,48.034-23.194,65.278l-1.932,2.593l-1.097-0.579l1.935-2.594c12.766-17.097,21.989-29.448,22.994-64.723
			c0.743-26.026-19.82-57.286-34.833-80.112c-6.329-9.62-11.327-17.219-13.108-22.046c-3.269-8.86,0.957-21.844,5.043-34.401
			c3.367-10.346,6.547-20.119,5.743-27.485c-3.813-34.974-35.18-63.629-78.051-71.303c-32.611-5.838-71.192-0.033-108.644,16.346
			c-5.833,2.551-11.727,5.37-17.427,8.096c-18.786,8.985-38.211,18.276-59.355,19.951c-14.234,1.128-28.305-1.317-41.913-3.681
			c-4.467-0.776-9.085-1.579-13.631-2.24c-49.474-7.198-96.711,3.277-126.363,28.023c-20.124,16.795-33.184,41.176-35.832,66.893
			c-1.954,18.979,1.056,38.847,8.259,54.51c2.689,5.848,6.793,11.582,10.761,17.127c8.641,12.073,17.575,24.557,11.877,38.542
			l-0.299,0.747c-5.471,13.787-2.846,28.441,7.201,40.205c9.71,11.368,24.644,17.888,40.974,17.888V720.059z"/>
		<path style="clip-path:url(#SVGID_00000026152066042499323780000010652918351151828126_);fill:#FFFFFF;" d="M506.157-281.352
			c23.352-3.349,46.011,2.703,62.169,16.602c16.708,14.373,23.393,34.303,18.34,54.679l-0.276,1.092
			c-5.073,19.682,8.995,34.068,23.888,49.296c6.682,6.833,13.591,13.897,18.565,21.455c13.258,20.146,21.434,46.926,22.431,73.475
			c1.353,36.016-12.26,72.309-37.349,99.571c-36.945,40.146-101.469,64.158-172.602,64.237c-6.517,0.008-13.15-0.164-19.565-0.33
			c-19.39-0.502-39.445-1.021-58.902,3.328c-28.926,6.461-54.147,22.981-78.538,38.956c-7.452,4.882-15.158,9.928-22.842,14.604
			c-49.483,30.103-102.69,45.88-149.818,44.427C49.486,198.122-0.578,164.83-12.919,117.195
			c-2.628-10.145-0.075-24.267,2.628-39.218c3.221-17.814,6.55-36.234,0.423-47.363c-3.375-6.128-11.817-15.476-22.506-27.31
			C-57.964-25.028-93.01-63.828-97.118-99.93c-5.554-48.814,5.005-67.703,19.619-93.845l2.197-3.937l1.166,0.405l-2.198,3.938
			c-14.526,25.984-25.02,44.758-19.5,93.28c4.075,35.814,39.002,74.484,64.506,102.72C-20.595,14.513-12.118,23.899-8.69,30.125
			c6.28,11.408,2.922,29.986-0.327,47.954c-2.684,14.852-5.221,28.88-2.641,38.836c12.222,47.179,61.827,80.154,123.433,82.054
			c46.836,1.447,99.74-14.255,148.977-44.209c7.664-4.663,15.36-9.703,22.803-14.579c24.5-16.047,49.833-32.641,79.03-39.163
			c19.65-4.387,39.799-3.869,59.284-3.365c6.405,0.165,13.028,0.337,19.523,0.33c70.72-0.079,134.839-23.923,171.525-63.787
			c24.9-27.058,38.411-63.09,37.068-98.858c-0.992-26.391-9.113-53.003-22.282-73.014c-4.921-7.478-11.796-14.507-18.443-21.305
			c-14.42-14.744-29.331-29.992-24.131-50.168l0.275-1.084c4.966-20.031-1.605-39.623-18.029-53.751
			c-15.875-13.656-38.132-19.602-61.067-16.313L506.157-281.352z"/>
		<path style="clip-path:url(#SVGID_00000026152066042499323780000010652918351151828126_);fill:#FFFFFF;" d="M432.433-270.779
			c16.582-2.378,32.693,2.065,44.203,12.191c11.9,10.469,16.693,24.947,13.15,39.723l-0.193,0.789
			c-3.528,14.15,6.436,24.557,16.983,35.576c4.75,4.961,9.661,10.09,13.206,15.579c9.443,14.62,15.298,34.032,16.064,53.257
			c1.041,26.088-8.528,52.341-26.251,72.031C483.499-12.641,437.822,4.604,387.415,4.501c-4.615-0.01-9.311-0.149-13.853-0.283
			c-13.712-0.406-27.893-0.823-41.63,2.269c-20.421,4.598-38.219,16.477-55.429,27.965c-5.265,3.514-10.71,7.148-16.14,10.513
			c-34.993,21.68-72.66,32.983-106.065,31.824c-44.094-1.53-79.672-25.768-88.531-60.313c-1.891-7.371-0.113-17.592,1.77-28.413
			c2.234-12.853,4.546-26.143,0.207-34.164c-2.394-4.425-8.386-11.199-15.972-19.773c-18.189-20.562-43.1-48.721-46.093-74.882
			c-4.046-35.358,3.394-49.012,13.692-67.909l1.545-2.841l1.168,0.418l-1.547,2.842C10.327-189.509,2.95-175.973,6.963-140.914
			c2.959,25.868,27.751,53.893,45.853,74.356c7.63,8.624,13.656,15.437,16.105,19.962c4.494,8.306,2.154,21.758-0.109,34.768
			c-1.864,10.719-3.625,20.844-1.784,28.022c8.739,34.079,43.856,57.99,87.383,59.5c33.109,1.15,70.476-10.074,105.223-31.603
			c5.412-3.353,10.846-6.98,16.102-10.488c17.32-11.561,35.23-23.516,55.921-28.175c13.93-3.137,28.205-2.715,42.011-2.306
			c4.531,0.134,9.217,0.273,13.811,0.283c49.995,0.102,95.266-16.972,121.105-45.677c17.536-19.481,27.003-45.47,25.973-71.302
			c-0.76-19.064-6.56-38.304-15.914-52.786c-3.492-5.407-8.368-10.501-13.084-15.426c-10.267-10.725-20.883-21.813-17.229-36.466
			l0.19-0.782c3.458-14.424-1.22-28.557-12.835-38.776c-11.226-9.875-26.934-14.209-43.099-11.891L432.433-270.779z"/>
	</g>
	
		<rect x="25" y="0" transform="matrix(-1 -1.224647e-16 1.224647e-16 -1 950 500.0001)" style="fill:none;" width="900" height="500"/>
</g>
<g id="OBJECTS">
	<g>
		<g>
			
				<text transform="matrix(1 0 0 1 405.4336 271.3124)" style="fill:#090909; font-family:'Montserrat-ExtraBold'; font-size:61.9136px;">COMING SOON</text>
		</g>
		<g>
			
				<text transform="matrix(1 0 0 1 539.0527 315.6874)" style="fill:#FF8D1D; font-family:'BigShouldersDisplay-Medium'; font-size:32.418px; letter-spacing:8;">STAY TUNED</text>
		</g>
	</g>
	<g>
		<g>
			<rect x="108.505" y="475.885" style="fill:#090909;" width="181.804" height="24.318"/>
			<g>
				<path style="fill:#708CF5;" d="M322.27,319.913c4.853,0.126,8.098-4.955,5.943-9.305l-33.882-68.372
					c-0.719-1.723-1.543-3.39-2.473-4.991l-0.005-0.009l0,0.001c-6.986-12.018-19.682-20.364-34.523-21.198l-95.98-5.396
					l-0.031-0.043l-0.714,0.014l-0.154-0.006c-0.104,0-0.205,0.014-0.31,0.015l-15.902,0.303
					c-27.788,0.529-52.835,18.521-60.515,45.232c-0.31,1.077-0.592,2.167-0.847,3.269l-19.903,67.529
					c-1.366,4.634,1.962,9.326,6.787,9.569l47.813,2.41l-15.39,127.74c-0.603,5.006,3.305,9.414,8.348,9.414h181.127
					c4.097,0,7.401-3.352,7.341-7.448l-0.067-149.388L322.27,319.913z"/>
				<path style="fill:#090909;" d="M291.657,476.587H110.53c-2.547,0-4.977-1.093-6.666-2.998c-1.688-1.905-2.482-4.447-2.178-6.975
					l15.325-127.208l-47.278-2.384c-2.453-0.123-4.676-1.344-6.097-3.348c-1.422-2.004-1.839-4.505-1.143-6.862l19.902-67.528
					c0.248-1.077,0.535-2.186,0.846-3.266c7.563-26.307,32.642-45.055,60.986-45.594l16.025-0.309
					c0.065-0.004,0.13-0.009,0.196-0.009l0.173,0.006l0.686-0.014c0.072-0.008,0.162,0.018,0.234,0.053l95.814,5.386
					c14.54,0.817,27.598,8.835,34.929,21.446c0.934,1.608,1.775,3.307,2.507,5.058l33.869,68.344
					c1.091,2.201,0.952,4.751-0.37,6.821c-1.322,2.07-3.599,3.286-6.033,3.204c-0.001,0-0.001,0-0.002,0l-22.824-0.647
					l0.067,148.873c0.03,2.108-0.771,4.103-2.256,5.61C295.758,475.757,293.774,476.587,291.657,476.587z M160.431,211.106
					l-0.107,0.007c-0.06,0.004-0.119,0.008-0.18,0.009l-15.897,0.303c-27.91,0.531-52.602,18.982-60.045,44.87
					c-0.306,1.064-0.588,2.155-0.84,3.244l-19.91,67.558c-0.607,2.061-0.243,4.248,1,6.001c1.242,1.752,3.187,2.819,5.332,2.928
					l47.813,2.41c0.139,0.007,0.268,0.071,0.357,0.177c0.089,0.107,0.13,0.244,0.113,0.382l-15.39,127.74
					c-0.271,2.244,0.435,4.501,1.935,6.191c1.499,1.692,3.656,2.662,5.917,2.662h181.127c1.847,0,3.578-0.725,4.874-2.039
					c1.296-1.316,1.995-3.056,1.968-4.902l-0.067-149.395c0-0.135,0.055-0.265,0.151-0.358c0.097-0.095,0.219-0.148,0.363-0.142
					l23.337,0.661c2.106,0.088,4.033-0.97,5.165-2.742c1.132-1.772,1.25-3.955,0.316-5.84l-33.882-68.373
					c-0.729-1.741-1.551-3.4-2.458-4.962c-7.166-12.329-19.922-20.16-34.125-20.959l-95.98-5.396
					c-0.058-0.003-0.114-0.017-0.167-0.038l-0.539,0.01L160.431,211.106z"/>
			</g>
		</g>
		<g>
			<g>
				<g>
					<path style="fill:#F8EEE2;" d="M351.033,258.046c5.867-10.754,7.867-23.751,2.593-35.154l-6.752,2.461
						c0,0-6.464-18.62-7.508-32.217c-2.595-4.626-21.371,5.131-21.371,5.131s1.864-5.075,2.796-7.613
						c0.988-2.69,1.991-5.557,1.4-8.361c-0.591-2.804-3.468-5.325-6.192-4.434c-2.68,0.877-7.757,11.986-9.357,14.6
						c-9.631,15.737-9.513,36.324-7.821,54.116c0.902,9.483-3.389,107.128-1.752,111.464c9.886,26.175,46.725,26.707,57.353,0.824
						l0,0c1.352-5.093,2.127-10.299,2.324-15.521c0.267-7.061-11.434-70.216-11.615-72.359c-0.254-3.005,1.17-5.649,2.819-8.165
						C349.014,261.195,350.172,259.625,351.033,258.046z"/>
					<path style="fill:#090909;" d="M325.95,378.476c-0.162,0-0.323-0.001-0.485-0.003c-13.155-0.188-24.215-7.95-28.863-20.257
						c-0.87-2.306-0.249-25.987,0.797-61.852c0.684-23.401,1.328-45.505,0.925-49.741c-1.592-16.734-2.133-38.043,7.893-54.425
						c0.385-0.628,0.996-1.8,1.705-3.157c3.008-5.761,5.877-10.988,7.924-11.657c1.185-0.391,2.501-0.221,3.702,0.473
						c1.56,0.9,2.76,2.56,3.134,4.333c0.639,3.028-0.502,6.138-1.419,8.637l-2.358,6.419c4.402-2.19,18.445-8.732,20.899-4.355
						c0.035,0.064,0.057,0.134,0.063,0.207c0.934,12.171,6.308,28.605,7.317,31.61l6.273-2.286c0.241-0.089,0.516,0.024,0.625,0.26
						c4.903,10.602,3.953,23.579-2.608,35.604c-0.612,1.124-1.384,2.259-2.13,3.356c-0.326,0.479-0.654,0.962-0.974,1.45
						c-1.809,2.761-2.966,5.152-2.738,7.849c0.046,0.546,0.922,5.506,2.135,12.371c3.383,19.154,9.679,54.809,9.482,60.048
						c-0.199,5.272-0.986,10.532-2.34,15.631C349.951,371.067,338.893,378.476,325.95,378.476z M317.144,178.175
						c-0.315,0-0.646,0.046-0.989,0.158c-1.828,0.598-5.419,7.475-7.348,11.17c-0.747,1.43-1.337,2.56-1.738,3.216
						c-9.871,16.13-9.327,37.229-7.75,53.808c0.408,4.297-0.237,26.431-0.921,49.865c-0.81,27.738-1.727,59.177-0.861,61.47
						c4.5,11.914,15.206,19.429,27.941,19.61c12.741,0.137,23.646-7.023,28.482-18.8c1.314-4.967,2.09-10.152,2.286-15.351
						c0.194-5.133-6.09-40.719-9.467-59.837c-1.262-7.148-2.096-11.869-2.146-12.461c-0.267-3.157,1.235-5.942,2.898-8.481
						c0.322-0.492,0.653-0.979,0.982-1.464c0.767-1.127,1.49-2.191,2.08-3.272l0,0c6.32-11.586,7.32-24.053,2.768-34.287
						l-6.317,2.303c-0.124,0.044-0.264,0.04-0.386-0.018c-0.121-0.058-0.214-0.161-0.258-0.288
						c-0.064-0.187-6.459-18.729-7.524-32.224c-1.899-2.882-13.628,1.769-20.651,5.418c-0.181,0.094-0.406,0.068-0.561-0.068
						c-0.155-0.137-0.21-0.354-0.14-0.548l2.797-7.613c0.873-2.379,1.96-5.338,1.38-8.086c-0.312-1.48-1.354-2.922-2.655-3.673
						C318.571,178.447,317.907,178.175,317.144,178.175z"/>
				</g>
				<polygon style="fill:#090909;" points="314.269,208.701 331.747,226.118 344.806,200.749 342.02,189.224 318.287,198.038 				
					"/>
			</g>
			<g>
				<g>
					<g>
						<g>
							<g>
								<path style="fill:#FF8D1D;" d="M342,235.001L342,235.001c-4.676,0.807-9.121-2.329-9.928-7.005l-7.893-45.721
									c-0.807-4.676,2.329-9.121,7.005-9.928l0,0c4.676-0.807,9.121,2.329,9.928,7.005l7.893,45.721
									C349.812,229.749,346.676,234.193,342,235.001z"/>
								<path style="fill:#090909;" d="M340.519,235.628c-1.859,0-3.671-0.571-5.222-1.665c-1.984-1.4-3.305-3.489-3.719-5.882
									l-7.893-45.72c-0.413-2.393,0.131-4.804,1.531-6.788c1.399-1.984,3.488-3.305,5.882-3.718
									c2.392-0.414,4.804,0.13,6.788,1.53c1.984,1.4,3.305,3.489,3.718,5.882l7.893,45.721c0.852,4.94-2.474,9.653-7.413,10.505
									C341.563,235.583,341.038,235.628,340.519,235.628z M332.662,172.72c-0.463,0-0.928,0.04-1.393,0.12
									c-2.13,0.368-3.989,1.543-5.235,3.309c-1.246,1.766-1.729,3.912-1.361,6.042l7.893,45.72
									c0.367,2.13,1.543,3.989,3.309,5.235c1.767,1.246,3.909,1.73,6.042,1.362l0,0c4.396-0.759,7.355-4.953,6.597-9.35
									l-7.893-45.721c-0.367-2.13-1.542-3.989-3.308-5.235C335.93,173.228,334.317,172.72,332.662,172.72z"/>
							</g>
							<g>
								<path style="fill:#FFF9F3;" d="M340.651,179.535l-15.841,2.735c-3.317,0.573-6.471-1.652-7.044-4.97l-0.61-3.531
									c-0.573-3.317,1.652-6.471,4.97-7.044l15.841-2.735c3.318-0.573,6.471,1.652,7.044,4.97l0.61,3.531
									C346.194,175.808,343.969,178.962,340.651,179.535z"/>
								<path style="fill:#090909;" d="M323.769,182.858c-3.148,0-5.942-2.268-6.497-5.474l-0.609-3.531
									c-0.618-3.584,1.795-7.003,5.378-7.622l15.842-2.734c3.584-0.619,7.002,1.793,7.622,5.377l0.609,3.531
									c0.618,3.584-1.795,7.003-5.378,7.621l0,0l-15.842,2.734C324.517,182.827,324.141,182.858,323.769,182.858z M339.008,164.4
									c-0.315,0-0.634,0.027-0.955,0.082l-15.842,2.734c-3.04,0.525-5.087,3.426-4.561,6.466l0.609,3.531
									c0.525,3.04,3.424,5.084,6.466,4.562l15.842-2.734c3.04-0.525,5.087-3.426,4.561-6.466l-0.609-3.531
									C344.049,166.325,341.678,164.4,339.008,164.4z M340.651,179.535h0.01H340.651z"/>
							</g>
							<g>
								<path style="fill:#F8EEE2;" d="M297.828,158.4l-4.615,0.797c-2.255,0.389-4.398-1.123-4.787-3.378l-0.147-0.85
									c-0.389-2.255,1.123-4.398,3.378-4.787l4.615-0.797L297.828,158.4z"/>
								<path style="fill:#090909;" d="M292.498,159.758c-0.949,0-1.875-0.292-2.667-0.851c-1.014-0.715-1.688-1.782-1.898-3.004
									l-0.147-0.849c-0.435-2.523,1.263-4.931,3.785-5.366l4.615-0.797c0.13-0.023,0.265,0.008,0.373,0.084
									c0.108,0.077,0.182,0.193,0.205,0.324l1.557,9.016c0.022,0.13-0.008,0.265-0.085,0.373
									c-0.076,0.108-0.192,0.182-0.323,0.205l-4.615,0.796C293.031,159.735,292.764,159.758,292.498,159.758z M295.864,149.962
									l-4.123,0.712c-1.979,0.342-3.311,2.23-2.97,4.21l0.147,0.849c0.166,0.96,0.694,1.796,1.49,2.357
									c0.795,0.562,1.762,0.779,2.72,0.613l4.122-0.711L295.864,149.962z"/>
							</g>
							<g>
								<path style="fill:#FF8D1D;" d="M345.179,169.931l-24.207,4.179c-11.827,2.042-23.069-5.891-25.111-17.717l-0.77-4.459
									c-2.042-11.827,5.89-23.069,17.717-25.111l24.207-4.179L345.179,169.931z"/>
								<path style="fill:#090909;" d="M317.265,174.929c-10.612,0-20.03-7.645-21.896-18.451l-0.77-4.459
									c-2.084-12.079,6.046-23.603,18.125-25.688l24.207-4.179c0.268-0.045,0.531,0.135,0.578,0.408l8.163,47.286
									c0.022,0.13-0.008,0.265-0.085,0.373c-0.076,0.108-0.192,0.182-0.323,0.205l-24.206,4.179
									C319.784,174.823,318.516,174.929,317.265,174.929z M336.608,123.223l-23.715,4.094
									c-11.535,1.991-19.3,12.997-17.309,24.533l0.769,4.459c1.991,11.535,12.992,19.3,24.533,17.309l23.713-4.094
									L336.608,123.223z"/>
							</g>
							<path style="fill:#F8EEE2;stroke:#090909;stroke-linecap:round;stroke-linejoin:round;stroke-miterlimit:10;" d="
								M337.016,122.645L337.016,122.645l8.163,47.286l0,0c18.74-3.235,38.052-0.459,55.318,7.953l38.216,18.619L416.228,66.251
								l-29.762,30.354C373.019,110.319,355.756,119.41,337.016,122.645z"/>
							
								<ellipse transform="matrix(0.9854 -0.1701 0.1701 0.9854 -16.056 74.8737)" style="fill:#FFF9F3;stroke:#090909;stroke-linecap:round;stroke-linejoin:round;stroke-miterlimit:10;" cx="428.894" cy="131.131" rx="16.116" ry="66.41"/>
							<g>
								<defs>
									
										<ellipse id="XMLID_1_" transform="matrix(0.9854 -0.1701 0.1701 0.9854 -15.8435 74.8561)" cx="428.894" cy="129.881" rx="12.952" ry="53.373"/>
								</defs>
								<use xlink:href="#XMLID_1_"  style="overflow:visible;fill:#F8EEE2;"/>
								<clipPath id="XMLID_00000074400128331883173260000013156675217964029105_">
									<use xlink:href="#XMLID_1_"  style="overflow:visible;"/>
								</clipPath>
								
									<path style="clip-path:url(#XMLID_00000074400128331883173260000013156675217964029105_);fill:#FF8D1D;stroke:#090909;stroke-linecap:round;stroke-linejoin:round;stroke-miterlimit:10;" d="
									M401.694,122.921l16.947-2.925c6.921-1.195,13.501,3.447,14.696,10.369v0c1.195,6.921-3.447,13.501-10.369,14.696
									l-16.947,2.926L401.694,122.921z"/>
								
									<use xlink:href="#XMLID_1_"  style="overflow:visible;fill:none;stroke:#090909;stroke-linecap:round;stroke-linejoin:round;stroke-miterlimit:10;"/>
							</g>
							<g>
								<line style="fill:#F8EEE2;" x1="342.02" y1="121.634" x2="349.944" y2="169.24"/>
								<path style="fill:#090909;" d="M349.943,169.74c-0.239,0-0.451-0.173-0.492-0.418l-7.924-47.606
									c-0.045-0.272,0.139-0.53,0.411-0.575c0.268-0.047,0.529,0.139,0.575,0.411l7.924,47.606
									c0.045,0.272-0.139,0.53-0.411,0.575C349.999,169.738,349.971,169.74,349.943,169.74z"/>
							</g>
						</g>
					</g>
				</g>
			</g>
			<g>
				<g>
					<g>
						<path style="fill:#F8EEE2;" d="M359.544,197.559l0.061,0.193c0.963,3.033-0.73,6.303-3.764,7.266l-17.263,5.483
							c-3.033,0.963-6.303-0.73-7.266-3.764l-0.062-0.193c-0.963-3.033,0.73-6.303,3.764-7.266l17.263-5.483
							C355.31,192.832,358.58,194.526,359.544,197.559z"/>
						<path style="fill:#090909;" d="M336.832,211.274c-0.994,0-1.982-0.239-2.894-0.711c-1.495-0.774-2.598-2.079-3.103-3.673
							l-0.062-0.193c-1.049-3.304,0.785-6.845,4.089-7.895l17.264-5.482c3.306-1.05,6.845,0.785,7.895,4.089l0.061,0.193
							c1.049,3.304-0.785,6.845-4.089,7.895l-17.264,5.482C338.107,211.176,337.469,211.274,336.832,211.274z M354.025,194.023
							c-0.529,0-1.066,0.08-1.597,0.249l-17.264,5.482c-2.778,0.882-4.32,3.86-3.438,6.639l0.062,0.193
							c0.425,1.34,1.352,2.437,2.61,3.088c1.259,0.652,2.689,0.776,4.028,0.351l17.264-5.482c2.778-0.882,4.32-3.86,3.439-6.639
							l-0.061-0.193l0,0C358.353,195.462,356.267,194.023,354.025,194.023z"/>
					</g>
					<g>
						<path style="fill:#F8EEE2;" d="M356.136,185.901l0.061,0.193c0.963,3.033-0.73,6.303-3.764,7.267l-17.263,5.483
							c-3.033,0.963-6.303-0.73-7.267-3.764l-0.062-0.194c-0.963-3.033,0.73-6.303,3.764-7.266l17.263-5.483
							C351.903,181.174,355.173,182.867,356.136,185.901z"/>
						<path style="fill:#090909;" d="M333.425,199.615c-0.994,0.001-1.981-0.239-2.893-0.711c-1.495-0.774-2.598-2.079-3.104-3.673
							l-0.061-0.194c-0.507-1.594-0.359-3.295,0.416-4.79c0.774-1.495,2.078-2.597,3.673-3.104l17.263-5.483
							c3.304-1.05,6.846,0.786,7.895,4.089l0.061,0.193c0.507,1.594,0.359,3.296-0.415,4.791c-0.774,1.495-2.079,2.597-3.674,3.104
							l-17.263,5.483C334.7,199.518,334.061,199.615,333.425,199.615z M350.617,182.365c-0.529,0-1.066,0.08-1.597,0.248
							l-17.263,5.483c-1.34,0.425-2.436,1.352-3.088,2.61c-0.652,1.258-0.776,2.688-0.351,4.028l0.062,0.194
							c0.425,1.34,1.352,2.436,2.61,3.088c1.26,0.652,2.69,0.776,4.028,0.351l17.263-5.483c1.34-0.425,2.437-1.353,3.088-2.61
							c0.652-1.258,0.776-2.688,0.351-4.028l-0.061-0.193l0,0C354.945,183.804,352.859,182.365,350.617,182.365z"/>
					</g>
					<g>
						<path style="fill:#F8EEE2;" d="M359.605,209.516l0.017,0.052c0.952,2.995-0.721,6.224-3.716,7.176l-11.777,3.74
							c-2.995,0.951-6.225-0.721-7.176-3.717l-0.017-0.052c-0.951-2.995,0.722-6.224,3.717-7.176l11.775-3.74
							C355.423,204.848,358.653,206.52,359.605,209.516z"/>
						<path style="fill:#090909;" d="M342.403,221.252c-2.636,0-5.088-1.691-5.927-4.334c-1.054-3.318,0.76-6.819,4.025-7.856
							l11.774-3.739c1.576-0.501,3.26-0.354,4.736,0.411c1.479,0.765,2.568,2.055,3.068,3.631l0.017,0.05
							c0.501,1.578,0.355,3.259-0.41,4.737c-0.766,1.478-2.055,2.567-3.631,3.068l-11.776,3.74
							C343.657,221.158,343.025,221.252,342.403,221.252z M354.151,206.031c-0.527,0-1.057,0.081-1.572,0.245l-11.774,3.739
							c-2.74,0.87-4.262,3.808-3.392,6.548c0.887,2.792,3.825,4.313,6.564,3.444l11.776-3.74c1.321-0.419,2.403-1.334,3.046-2.575
							c0.643-1.241,0.765-2.652,0.345-3.973l-0.017-0.052c-0.42-1.322-1.334-2.403-2.575-3.046
							C355.796,206.23,354.976,206.031,354.151,206.031z"/>
					</g>
					<g>
						<path style="fill:#F8EEE2;" d="M362.822,220.571l0.061,0.193c0.963,3.033-0.73,6.303-3.764,7.266l-5.83,1.852
							c-3.033,0.963-6.303-0.73-7.267-3.764l-0.061-0.193c-0.963-3.033,0.73-6.303,3.763-7.266l5.83-1.852
							C358.589,215.844,361.858,217.538,362.822,220.571z"/>
						<path style="fill:#090909;" d="M351.544,230.655c-0.994,0-1.981-0.239-2.894-0.711c-1.495-0.774-2.598-2.079-3.103-3.673
							l-0.061-0.194c-0.507-1.594-0.359-3.295,0.416-4.791c0.774-1.495,2.078-2.597,3.673-3.104l5.829-1.852
							c3.305-1.05,6.846,0.785,7.896,4.089c0,0,0,0.001,0.001,0.002l0.061,0.193c0.506,1.592,0.358,3.294-0.416,4.789
							c-0.774,1.495-2.078,2.598-3.673,3.104l-5.83,1.852C352.819,230.557,352.181,230.655,351.544,230.655z M357.303,217.036
							c-0.529,0-1.066,0.08-1.597,0.249l-5.829,1.852c-1.34,0.425-2.437,1.353-3.088,2.61c-0.652,1.258-0.776,2.689-0.351,4.028
							l0.061,0.194c0.425,1.34,1.353,2.436,2.61,3.088c1.26,0.652,2.69,0.776,4.028,0.351l5.83-1.852
							c1.34-0.425,2.436-1.353,3.088-2.61c0.651-1.258,0.775-2.688,0.35-4.028l-0.061-0.193
							C361.632,218.475,359.545,217.036,357.303,217.036z"/>
					</g>
				</g>
			</g>
			<g>
				<g>
					<path style="fill:#F8EEE2;" d="M317.733,199.25c0,0,2.126-6.059,3.059-8.596c0.988-2.69,1.991-5.557,1.4-8.361
						c-0.591-2.804-3.468-5.325-6.192-4.434c-2.68,0.877-7.757,11.986-9.357,14.6"/>
					<path style="fill:#090909;" d="M318.204,199.415l-0.943-0.331c0,0,2.129-6.064,3.062-8.603c0.873-2.379,1.96-5.338,1.38-8.086
						c-0.312-1.48-1.354-2.922-2.655-3.673c-0.672-0.389-1.719-0.77-2.892-0.389c-1.828,0.598-5.419,7.475-7.348,11.17
						c-0.747,1.43-1.337,2.56-1.738,3.216c-0.146,0.236-0.456,0.307-0.688,0.165c-0.236-0.144-0.31-0.452-0.166-0.688
						c0.385-0.628,0.996-1.8,1.705-3.157c3.008-5.761,5.877-10.988,7.924-11.657c1.185-0.391,2.501-0.221,3.702,0.473
						c1.56,0.9,2.76,2.56,3.134,4.333c0.639,3.028-0.502,6.138-1.419,8.637C320.329,193.361,318.204,199.415,318.204,199.415z"/>
				</g>
				<path style="fill:#090909;" d="M313.001,215.926c-0.002,0-0.004,0-0.006,0c-0.276-0.003-0.497-0.23-0.494-0.506
					c0.061-5.5,4.581-15.929,4.773-16.371c0.111-0.253,0.406-0.367,0.658-0.259c0.253,0.11,0.368,0.405,0.258,0.658
					c-0.046,0.106-4.63,10.684-4.689,15.983C313.498,215.706,313.274,215.926,313.001,215.926z"/>
			</g>
		</g>
		<g>
			<g>
				<g>
					<path style="fill:#090909;" d="M278.459,85.284c0.233-0.319,0.44-0.654,0.583-1.027c2.697-3.051,4.491-6.948,4.896-11.316
						c1.017-10.965-7.048-20.679-18.013-21.696c-0.925-0.086-1.836-0.085-2.739-0.044c-9.67-8.35-16.413-17.384-33.366-15.202
						c-6.535,0.841-12.609,4.209-16.326,9.65c-0.517,0.757-0.971,1.571-1.385,2.408c-0.333,0.674-8.98,1.644-10.13,1.963
						c-8.079,2.236-18.413,5.564-22.445,13.566c-1.783,3.539-2.346,7.528-2.494,11.515c-6.093,4.837-8.575,13.396-6.115,21.144
						l6.352,20.01c1.33-0.334,2.714-0.531,4.144-0.531h8.1c0.496,0.845,0.992,1.695,1.48,2.557
						c2.514,4.443,4.142,9.168,3.949,14.335c10.477-14.65,60.626-10.83,71.756-10.83c11.13,0,20.153-9.023,20.153-20.153
						C286.858,94.893,283.538,88.943,278.459,85.284z"/>
					<path style="fill:#090909;" d="M194.949,133.115c-0.054,0-0.108-0.009-0.161-0.027c-0.209-0.071-0.347-0.271-0.339-0.492
						c0.171-4.548-1.101-9.151-3.885-14.071c-0.438-0.775-0.884-1.541-1.33-2.303h-7.813c-1.305,0-2.657,0.174-4.023,0.516
						c-0.258,0.064-0.518-0.082-0.599-0.334l-6.352-20.011c-2.508-7.902-0.057-16.527,6.101-21.542
						c0.126-3.083,0.544-7.534,2.539-11.493c3.871-7.684,13.226-11.185,22.758-13.823c0.407-0.113,1.575-0.285,3.054-0.503
						c2.161-0.318,6.143-0.906,6.801-1.277c0.456-0.916,0.908-1.699,1.381-2.391c3.675-5.377,9.752-8.972,16.676-9.864
						c14.796-1.903,22.103,4.754,29.831,11.805c1.219,1.111,2.477,2.259,3.776,3.386c0.977-0.036,1.814-0.02,2.606,0.054
						c5.437,0.504,10.352,3.095,13.839,7.296c3.487,4.201,5.131,9.508,4.627,14.945c-0.399,4.301-2.114,8.288-4.962,11.535
						c-0.088,0.214-0.196,0.425-0.332,0.645c5.154,3.899,8.217,10.018,8.217,16.465c0,11.388-9.265,20.653-20.653,20.653
						c-1.473,0-3.585-0.065-6.26-0.148c-16.802-0.522-56.146-1.736-65.09,10.769C195.26,133.04,195.107,133.115,194.949,133.115z
						 M181.421,115.223h8.1c0.178,0,0.342,0.094,0.432,0.247c0.497,0.847,0.994,1.699,1.483,2.563
						c2.586,4.57,3.909,8.891,4.022,13.159c10.629-11.735,47.175-10.606,65.02-10.055c2.666,0.083,4.771,0.147,6.229,0.147
						c10.837,0,19.653-8.816,19.653-19.653c0-6.288-3.063-12.247-8.191-15.942c-0.108-0.078-0.181-0.196-0.202-0.328
						c-0.021-0.131,0.012-0.266,0.091-0.373c0.243-0.332,0.408-0.622,0.519-0.911c0.021-0.056,0.053-0.107,0.092-0.152
						c2.741-3.099,4.392-6.913,4.773-11.031c0.479-5.17-1.083-10.218-4.4-14.213c-3.316-3.995-7.991-6.459-13.161-6.938
						c-0.802-0.075-1.65-0.087-2.67-0.043c-0.132,0.011-0.251-0.037-0.35-0.121c-1.362-1.177-2.676-2.375-3.945-3.533
						c-7.881-7.189-14.683-13.399-29.03-11.551c-6.64,0.854-12.463,4.294-15.977,9.436c-0.46,0.672-0.901,1.44-1.35,2.347
						c-0.259,0.524-1.329,0.833-7.513,1.745c-1.329,0.196-2.585,0.381-2.932,0.478c-9.311,2.577-18.436,5.972-22.133,13.309
						c-1.489,2.956-2.265,6.549-2.44,11.309c-0.006,0.146-0.074,0.282-0.189,0.373c-5.966,4.737-8.356,13.016-5.949,20.601
						l6.212,19.568C178.902,115.37,180.182,115.223,181.421,115.223z M211.738,47.731L211.738,47.731L211.738,47.731z"/>
				</g>
				<g>
					<g>
						<g>
							<path style="fill:#F8EEE2;" d="M238.881,87.273c-2.084-1.111-4.171-2.36-6.508-2.702c-5.769-0.843-11.053,4.001-16.88,3.843
								c-4.192-0.114-8.145-3.138-9.353-7.153c3.432,17.681-0.713,36.704-11.19,51.355c0.193-5.168-1.435-9.892-3.949-14.335
								c-0.488-0.862-0.984-1.711-1.48-2.557h-8.1c-1.431,0-2.814,0.197-4.144,0.531c-7.446,1.869-13.009,8.619-13.009,16.622v1.674
								c0,9.434,7.719,17.154,17.153,17.154h4.577l-4.583,57.265c-1.34,16.743,11.146,31.402,27.889,32.742l2.958,0.237
								c16.743,1.34,31.402-11.146,32.742-27.89l1.727-21.57c15.133-0.251,27.328-12.577,27.328-27.77V97.693
								c0-2.916-0.474-5.715-1.312-8.354c-1.351,0.819-2.78,1.499-4.261,2.008C258.792,94.676,247.925,92.095,238.881,87.273z"/>
							<path style="fill:#090909;" d="M214.74,242.547c-0.836,0-1.675-0.033-2.518-0.101l-2.958-0.237
								c-8.23-0.659-15.712-4.483-21.066-10.769c-5.354-6.286-7.94-14.281-7.281-22.512l4.539-56.725h-4.035
								c-9.734,0-17.653-7.919-17.653-17.653v-1.674c0-8.094,5.505-15.129,13.387-17.107c1.445-0.363,2.881-0.546,4.267-0.546h8.1
								c0.178,0,0.342,0.094,0.432,0.247c0.497,0.847,0.994,1.699,1.483,2.563c2.551,4.508,3.872,8.773,4.016,12.984
								c9.675-14.29,13.484-32.73,10.197-49.663c-0.051-0.261,0.112-0.517,0.371-0.581c0.262-0.064,0.523,0.087,0.599,0.341
								c1.152,3.83,4.891,6.689,8.888,6.797c2.663,0.073,5.248-0.955,7.771-1.948c2.941-1.158,5.98-2.354,9.169-1.889
								c2.153,0.314,4.082,1.357,5.947,2.366l0.724,0.389l0,0c5.996,3.198,17.764,7.975,29.208,4.044
								c1.419-0.487,2.819-1.147,4.163-1.962c0.134-0.08,0.293-0.093,0.436-0.041c0.143,0.054,0.254,0.171,0.301,0.317
								c0.887,2.788,1.336,5.649,1.336,8.505v67.025c0,15.182-12.234,27.764-27.365,28.259l-1.691,21.121
								c-0.658,8.231-4.482,15.712-10.769,21.067C229.092,239.971,222.071,242.547,214.74,242.547z M181.421,116.223
								c-1.305,0-2.657,0.174-4.023,0.516c-7.436,1.867-12.631,8.502-12.631,16.137v1.674c0,9.183,7.471,16.653,16.653,16.653h4.577
								c0.14,0,0.272,0.058,0.367,0.161c0.095,0.102,0.143,0.24,0.131,0.379l-4.583,57.265c-0.637,7.964,1.865,15.701,7.046,21.783
								c5.182,6.082,12.421,9.783,20.386,10.42l2.958,0.237c7.962,0.642,15.7-1.864,21.783-7.045
								c6.082-5.181,9.783-12.421,10.421-20.386l1.727-21.57c0.02-0.256,0.232-0.455,0.49-0.46
								c14.797-0.246,26.836-12.479,26.836-27.27V97.693c0-2.548-0.372-5.102-1.105-7.601c-1.235,0.705-2.513,1.285-3.806,1.729
								c-11.801,4.051-23.863-0.834-30.003-4.107l-0.729-0.393c-1.788-0.967-3.638-1.967-5.615-2.256
								c-2.927-0.425-5.71,0.67-8.658,1.83c-2.616,1.03-5.334,2.091-8.164,2.018c-3.274-0.089-6.391-1.848-8.302-4.477
								c2.354,16.798-1.964,34.687-11.821,48.469c-0.128,0.18-0.358,0.253-0.567,0.182c-0.209-0.071-0.347-0.271-0.339-0.492
								c0.171-4.548-1.101-9.151-3.885-14.071c-0.438-0.775-0.884-1.541-1.33-2.303H181.421z"/>
						</g>
					</g>
					<g>
						<g>
							<polygon style="fill:#090909;" points="190.069,151.745 184.667,166.521 181.281,151.692 							"/>
							<path style="fill:#090909;" d="M184.667,167.021c-0.011,0-0.021-0.001-0.031-0.001c-0.222-0.014-0.407-0.172-0.456-0.388
								l-3.386-14.83c-0.034-0.149,0.002-0.305,0.098-0.424c0.096-0.119,0.277-0.179,0.393-0.187l8.788,0.053
								c0.163,0.001,0.314,0.081,0.408,0.215c0.093,0.134,0.114,0.304,0.059,0.457l-5.402,14.776
								C185.064,166.891,184.876,167.021,184.667,167.021z M181.909,152.196l2.869,12.566l4.577-12.521L181.909,152.196z"/>
						</g>
						<g>
							<polyline style="fill:#F8EEE2;" points="179.037,128.201 185.328,135.201 179.442,139.039 							"/>
							<path style="fill:#090909;" d="M179.442,139.539c-0.163,0-0.323-0.08-0.419-0.227c-0.15-0.231-0.086-0.541,0.146-0.692
								l5.397-3.519l-5.901-6.566c-0.185-0.205-0.168-0.521,0.038-0.706c0.204-0.184,0.521-0.168,0.706,0.038l6.291,7.001
								c0.098,0.108,0.143,0.254,0.124,0.399c-0.02,0.145-0.101,0.274-0.223,0.354l-5.886,3.838
								C179.631,139.513,179.536,139.539,179.442,139.539z"/>
						</g>
						<g>
							<path style="fill:#090909;" d="M246.591,142.234h-4.808c-0.276,0-0.5-0.224-0.5-0.5s0.224-0.5,0.5-0.5h4.808
								c1.584,0,3.076-0.696,4.094-1.909c1.019-1.213,1.445-2.804,1.171-4.364l-2.97-16.874c-0.048-0.271,0.134-0.531,0.405-0.579
								c0.264-0.05,0.532,0.133,0.579,0.406l2.97,16.874c0.326,1.852-0.18,3.74-1.389,5.18
								C250.242,141.408,248.471,142.234,246.591,142.234z"/>
							<g>
								<path style="fill:#090909;" d="M262.32,126.948c0.344,1.899-0.917,3.718-2.815,4.061c-1.899,0.344-3.717-0.916-4.061-2.815
									c-0.344-1.899,0.916-3.717,2.815-4.062C260.158,123.789,261.976,125.049,262.32,126.948z"/>
								<g>
									<g>
										<path style="fill:#090909;" d="M243.551,174.159c-0.156,0.042-0.326,0.031-0.487-0.04
											c-0.161-0.073-4.009-1.762-6.865,1.261c-0.275,0.292-0.735,0.305-1.028,0.029c-0.292-0.275-0.306-0.736-0.03-1.028
											c3.585-3.79,8.479-1.607,8.529-1.585c0.363,0.167,0.523,0.597,0.356,0.962
											C243.933,173.964,243.755,174.105,243.551,174.159z"/>
									</g>
								</g>
								<g>
									<g>
										<g>
											<g>
												<g>
													<g>
														<path style="fill:#090909;" d="M215.545,114.016c1.741,0.198,3.677-0.597,5.591-1.259
															c1.915-0.707,3.854-1.369,5.56-1.885c1.709-0.518,3.692-1.046,5.676-1.52c1.96-0.513,4.022-0.93,5.339-2.054
															c1.278-1.064,1.337-3.021-1.062-4.679c-2.274-1.632-7.24-2.652-12.899-0.952c-5.644,1.725-9.138,5.309-10.06,7.909
															C212.685,112.267,213.872,113.846,215.545,114.016z"/>
													</g>
												</g>
											</g>
											<g>
												<g>
													<g>
														<path style="fill:#090909;" d="M269.623,111.161c-1.298,0.246-2.733-0.328-4.154-0.792
															c-1.42-0.501-2.859-0.963-4.126-1.315c-1.268-0.353-2.74-0.701-4.214-1.005c-1.456-0.337-2.987-0.589-3.96-1.467
															c-0.944-0.828-0.975-2.457,0.819-3.952c1.704-1.466,5.405-2.546,9.606-1.39c4.19,1.178,6.768,4.006,7.437,6.132
															C271.762,109.57,270.869,110.942,269.623,111.161z"/>
													</g>
												</g>
											</g>
										</g>
									</g>
								</g>
								<path style="fill:#090909;" d="M231.902,128.159c-0.158,2.106-1.994,3.684-4.1,3.526c-2.106-0.158-3.685-1.994-3.526-4.099
									c0.159-2.106,1.993-3.684,4.099-3.526C230.482,124.218,232.06,126.053,231.902,128.159z"/>
								<g>
									<path style="fill:#F8EEE2;" d="M224.144,131.882c0,0,3.414-2.454,6.726,0.471"/>
									<path style="fill:#090909;" d="M230.87,132.853c-0.118,0-0.236-0.042-0.331-0.126c-2.96-2.614-5.977-0.529-6.104-0.439
										c-0.225,0.16-0.537,0.107-0.697-0.116c-0.16-0.225-0.109-0.536,0.114-0.696c0.037-0.027,3.782-2.65,7.349,0.503
										c0.207,0.183,0.227,0.499,0.044,0.706C231.146,132.796,231.008,132.853,230.87,132.853z"/>
								</g>
								<g>
									<path style="fill:#F8EEE2;" d="M256.163,131.635c0,0,3.092-1.385,5.945,0.061"/>
									<path style="fill:#090909;" d="M262.108,132.196c-0.076,0-0.153-0.017-0.227-0.054c-2.607-1.322-5.485-0.064-5.515-0.05
										c-0.252,0.111-0.548,0-0.66-0.252c-0.113-0.253,0-0.548,0.252-0.661c0.135-0.061,3.341-1.467,6.376,0.072
										c0.246,0.124,0.345,0.426,0.22,0.672C262.466,132.096,262.29,132.196,262.108,132.196z"/>
								</g>
							</g>
							<g>
								<path style="fill:#FFF9F3;" d="M223.116,143.01c1.324-0.88,3.084-0.664,4.257,0.41c2.137,1.956,6.786,5.427,13.447,6.105
									c1.635,0.167,2.48,2.069,1.778,3.555c-1.544,3.268-5.678,8.307-14.283,4.272C217.83,152.435,219.665,145.305,223.116,143.01
									z"/>
								<path style="fill:#090909;" d="M234.191,159.339c-1.73,0-3.749-0.437-6.089-1.535c-6.758-3.169-8.021-7.06-8.173-9.098
									c-0.18-2.419,0.963-4.819,2.909-6.114c0.001,0,0.001,0,0.001,0c1.489-0.992,3.494-0.803,4.871,0.458
									c2.127,1.948,6.666,5.315,13.16,5.977c0.87,0.089,1.625,0.594,2.072,1.386c0.5,0.886,0.54,1.963,0.106,2.88
									C242.256,154.975,239.66,159.339,234.191,159.339z M223.394,143.426c-1.255,0.833-2.652,2.698-2.467,5.206
									c0.234,3.142,2.933,6.078,7.6,8.267c8.661,4.062,12.409-1.468,13.619-4.032c0.291-0.616,0.263-1.367-0.073-1.962
									c-0.289-0.513-0.752-0.826-1.303-0.882c-6.78-0.691-11.516-4.203-13.734-6.234
									C225.998,142.838,224.501,142.689,223.394,143.426L223.394,143.426z"/>
							</g>
						</g>
						<g>
							<path style="fill:#090909;" d="M246.552,192.648c0,0-31.253,2.017-38.968-10.644c0,0,6.948,20.878,37.568,28.137
								L246.552,192.648z"/>
							<path style="fill:#090909;" d="M245.152,210.641c-0.038,0-0.077-0.004-0.115-0.014c-30.538-7.24-37.856-28.254-37.927-28.465
								c-0.08-0.241,0.033-0.504,0.265-0.611c0.227-0.104,0.505-0.024,0.637,0.193c7.469,12.257,38.199,10.427,38.509,10.405
								c0.146-0.007,0.286,0.044,0.389,0.148c0.102,0.103,0.153,0.246,0.142,0.391l-1.4,17.493
								c-0.012,0.146-0.086,0.278-0.204,0.364C245.36,210.608,245.257,210.641,245.152,210.641z M209.708,185.314
								c3.437,6.146,12.964,18.806,34.992,24.204l1.309-16.339C241.982,193.378,219.352,194.08,209.708,185.314z"/>
						</g>
					</g>
				</g>
			</g>
		</g>
		<g>
			<g>
				<g>
					<path style="fill:#F8EEE2;" d="M70.78,408.784l2.782-72.009l75.597,2.428c-0.027,0.437,7.196-53.49,7.163-53.053l-7.163,53.053
						l-10.065-0.311l-1.008,23.958c0,0,68.536-35.048,74.402-42.114c0,0,19.836-19.78,27.755-25.149
						c0.849-0.576,1.73-1.144,2.723-1.402c0.993-0.258,2.132-0.161,2.923,0.491c1.03,0.849,1.203,2.351,1.144,3.685
						c-0.183,4.141-1.822,8.026-3.457,11.862c0.481-0.155,50.572-16.749,53.33-17.444c4.745-1.196,4.517,5.355,1.154,8.91
						c-4.292,4.537-24.239,15.044-25.324,15.297c4.815-0.179,9.42-1.153,10.572,6.69c0.795,5.412-3.994,6.916-8.855,7.478
						c3.066,0.112,5.698,1.137,5.98,4.781c1.208,6.161-3.911,8.66-9.016,9.291c-0.153,0.019-0.177,0.221-0.034,0.277
						c4.188,1.641,1.291,9.341-4.874,11.579l-34.455,14.529c-3.536,1.596-95.789,71.772-95.789,71.772
						c-10.685,7.482-23.091,9.15-34.237,6.307C83.523,444.971,70.854,427.88,70.78,408.784z"/>
					<path style="fill:#090909;" d="M112.451,451.515c-3.5,0-7.033-0.443-10.549-1.34c-18.542-4.729-31.546-21.749-31.622-41.389
						c0-0.007,0-0.015,0-0.022l2.781-72.01c0.011-0.273,0.218-0.479,0.516-0.48l75.147,2.414l6.819-50.552
						c0.075-0.551,0.134-0.981,0.184-1.319l0.1-0.735l0.032,0.005c0.116-0.479,0.235-0.464,0.516-0.438
						c0.269,0.028,0.467,0.269,0.446,0.538l-2.905,21.519c-0.133,0.987-0.267,1.978-0.399,2.966l-3.515,26.091
						c-0.098,0.719-0.172,1.265-0.235,1.679l-0.112,0.828c-0.015,0.113-0.066,0.212-0.142,0.287
						c-0.096,0.178-0.211,0.166-0.402,0.146c-0.006,0-0.012-0.001-0.018-0.002l-9.52-0.294l-0.951,22.607
						c7.538-3.872,68.078-35.088,73.481-41.597c0.231-0.232,19.992-19.911,27.859-25.244c0.914-0.619,1.822-1.197,2.877-1.472
						c1.263-0.326,2.521-0.107,3.368,0.59c0.977,0.807,1.41,2.146,1.325,4.092c-0.172,3.897-1.585,7.52-3.065,11.02
						c0.297-0.099,0.653-0.216,1.064-0.352c40.337-13.34,50.135-16.476,51.251-16.757c2.264-0.576,3.299,0.522,3.712,1.226
						c1.239,2.116,0.291,6.015-2.072,8.513c-3.489,3.689-17.443,11.452-23.174,14.337c3.861-0.129,7.547,0.385,8.554,7.233
						c0.273,1.864-0.068,3.436-1.017,4.67c-1.214,1.579-3.281,2.413-5.317,2.886c2.136,0.748,3.274,2.315,3.462,4.736
						c0.443,2.244,0.084,4.223-1.077,5.824c-1.716,2.367-4.767,3.403-7.344,3.85c0.889,0.692,1.358,1.766,1.341,3.111
						c-0.039,3.095-2.732,7.26-7.172,8.871l-34.432,14.521c-2.745,1.238-63.788,47.448-95.681,71.709
						C129.272,448.889,120.966,451.515,112.451,451.515z M71.28,408.793c0.079,19.18,12.771,35.797,30.87,40.413
						c11.777,3.004,23.793,0.792,33.826-6.231c3.753-2.855,92.323-70.219,95.87-71.819l34.467-14.534
						c4.003-1.454,6.504-5.258,6.537-7.953c0.012-0.932-0.265-2.156-1.651-2.699c-0.276-0.109-0.443-0.389-0.407-0.681
						c0.036-0.291,0.267-0.52,0.56-0.559c3.603-0.445,6.333-1.723,7.691-3.597c0.991-1.368,1.294-3.084,0.898-5.102
						c-0.227-2.876-1.975-4.249-5.509-4.378c-0.261-0.01-0.471-0.219-0.481-0.48c-0.01-0.261,0.183-0.486,0.442-0.517
						c3.968-0.458,6.382-1.409,7.599-2.992c0.788-1.025,1.056-2.307,0.819-3.916c-0.987-6.723-4.44-6.549-8.827-6.319
						c-0.407,0.02-0.818,0.042-1.232,0.058c-0.272-0.007-0.479-0.179-0.514-0.434c-0.035-0.255,0.131-0.494,0.381-0.554
						c1.31-0.355,20.912-10.752,25.075-15.153c2.2-2.325,2.837-5.783,1.935-7.32c-0.48-0.819-1.358-1.073-2.604-0.761
						c-1.1,0.277-10.872,3.406-51.182,16.736c-1.3,0.43-2.06,0.681-2.117,0.699c-0.185,0.061-0.39,0.006-0.522-0.139
						c-0.132-0.145-0.168-0.352-0.091-0.533c1.592-3.733,3.238-7.595,3.419-11.689c0.07-1.611-0.244-2.684-0.963-3.276
						c-0.599-0.494-1.527-0.639-2.479-0.394c-0.901,0.234-1.73,0.764-2.568,1.332c-7.789,5.28-27.484,24.892-27.682,25.09
						c-5.833,7.029-71.726,40.772-74.528,42.205c-0.157,0.079-0.347,0.072-0.497-0.024c-0.15-0.096-0.237-0.265-0.23-0.442
						l0.988-23.466l-64.532-2.073L71.28,408.793z"/>
				</g>
				<polygon style="fill:#090909;" points="138.225,350.485 108.505,378.5 138.086,363.375 				"/>
				<path style="fill:#090909;" d="M243.141,310.862l-18.637,8.689c0,0,17.474-13.872,20.988-14.981L243.141,310.862z"/>
			</g>
			<g>
				<path style="fill:#F8EEE2;" d="M262.348,320.191c0,0,11.332-3.757,13.298-3.842"/>
				<path style="fill:#090909;" d="M262.348,320.69c-0.21,0-0.405-0.133-0.475-0.343c-0.087-0.262,0.056-0.545,0.317-0.632
					c0.465-0.154,11.421-3.778,13.434-3.867c0.267-0.013,0.508,0.203,0.521,0.478c0.012,0.275-0.202,0.509-0.478,0.522
					c-1.556,0.067-10.028,2.777-13.162,3.816C262.453,320.683,262.399,320.69,262.348,320.69z"/>
			</g>
			<g>
				<line style="fill:#F8EEE2;" x1="275.466" y1="330.998" x2="264.941" y2="334.283"/>
				<path style="fill:#090909;" d="M264.941,334.783c-0.213,0-0.41-0.137-0.478-0.351c-0.082-0.264,0.065-0.544,0.328-0.627
					l10.524-3.285c0.269-0.082,0.544,0.065,0.627,0.328c0.082,0.264-0.066,0.544-0.328,0.627l-10.524,3.285
					C265.041,334.776,264.99,334.783,264.941,334.783z"/>
			</g>
			<g>
				<line style="fill:#F8EEE2;" x1="270.697" y1="345.303" x2="264.989" y2="346.947"/>
				<path style="fill:#090909;" d="M264.989,347.446c-0.218,0-0.417-0.143-0.48-0.361c-0.076-0.266,0.077-0.543,0.342-0.619
					l5.708-1.643c0.27-0.079,0.542,0.077,0.619,0.342c0.076,0.266-0.077,0.543-0.342,0.619l-5.708,1.644
					C265.081,347.44,265.035,347.446,264.989,347.446z"/>
			</g>
		</g>
	</g>
</g>
</svg>
